# xmcd
#
# Track frame offsets:
# 150
# 18416
# 30277
# 46682
# 57527
# 71186
# 86794
# 102935
# 114557
# 131859
# 146576
# 162575
# 176695
# 191295
# 205343
# 221581
#
# Disc length: 3140 seconds
#
#
# Revision: 0
# Processed by: cddbd v1.5.2PL0 Copyright (c) Steve Scherf et al.
# Submitted via: FreeRIP 2.96 
#
DISCID=ec0c4210
DTITLE=Gino e Geno/ Teodoro e Sampaio - Forrozão do milenio - Forrozão do Milenio 
DYEAR=2006
DGENRE=sertanejo 
TTITLE0=Lorota/ Gino e Geno
TTITLE1=Pega pega/ Teodoro e Sampaio
TTITLE2=Quando ela quer/ Gino e Geno
TTITLE3=Meu negocio e mulher/Teodoro e Sampaio
TTITLE4=Vazei na braquiaria/ Gino e Geno
TTITLE5=Solteirona/ Teodoro e Sampaio
TTITLE6=Macaco velho/ Gino e Geno
TTITLE7=Whisj com guarana/ Teodoro e Sampaio
TTITLE8=Mulher que não dá voa/Gino e Geno
TTITLE9=Fogo no rabo/ Teodoro e Sampaio
TTITLE10=Tição aceso/ Gino e Geno
TTITLE11=Raimunda/ Teodoro e Sampaio
TTITLE12=Nois não vive sem dinheiro/Gino e Geno
TTITLE13=A rabada da cunhada/ Teodoro e Sampaio
TTITLE14=Pinga na garganta/ Gino e Geno
TTITLE15=A gostozona/ Teodoro e Sampaio
EXTD=emerson@betim.mg.gov.br
EXTT0=
EXTT1=
EXTT2=
EXTT3=
EXTT4=
EXTT5=
EXTT6=
EXTT7=
EXTT8=
EXTT9=
EXTT10=
EXTT11=
EXTT12=
EXTT13=
EXTT14=
EXTT15=
PLAYORDER=
